PathFileType	4	(X/Y/Z)	SUBJ63_0_static_RCNL2025.trc
DataRate	CameraRate	NumFrames	NumMarkers	Units	OrigDataRate	OrigDataStartFrame	OrigNumFrames
100	100	12	25	mm	100	59	116
Frame#	Time	R_Shoulder			L_Shoulder			C7			J_Notch			R_Elbow			L_Elbow			R_Wrist			L_Wrist			R_Asis			L_Asis			Sacral			Thoracic			Sternum			R_Thigh_Lateral			R_Knee_Lateral			R_Shank_Lateral			R_Ankle_Lateral			R_Heel			R_Toe			L_Thigh_Lateral			L_Knee_Lateral			L_Shank_Lateral			L_Ankle_Lateral			L_Heel			L_Toe		
		X1	Y1	Z1	X2	Y2	Z2	X3	Y3	Z3	X4	Y4	Z4	X5	Y5	Z5	X6	Y6	Z6	X7	Y7	Z7	X8	Y8	Z8	X9	Y9	Z9	X10	Y10	Z10	X11	Y11	Z11	X12	Y12	Z12	X13	Y13	Z13	X14	Y14	Z14	X15	Y15	Z15	X16	Y16	Z16	X17	Y17	Z17	X18	Y18	Z18	X19	Y19	Z19	X20	Y20	Z20	X21	Y21	Z21	X22	Y22	Z22	X23	Y23	Z23	X24	Y24	Z24	X25	Y25	Z25
59	0.58000000	-334.828644	1297.457031	-44.072895	-329.752441	1300.636841	-384.854523	-418.244873	1362.561401	-218.797104	-296.049805	1261.343506	-217.026947	-361.040497	1002.592773	32.074890	-349.156403	1001.747742	-474.123169	-290.430969	786.737946	63.763487	-281.293594	789.051422	-499.315781	-255.876785	847.632812	-89.233589	-241.403229	843.624207	-341.466187	-474.288177	866.385437	-230.761505	-485.853638	1170.764893	-218.649414	-231.020782	1088.852783	-216.055801	-357.478241	508.779572	-43.271351	-367.636902	452.425964	-91.996574	-400.029877	272.450653	-47.213909	-411.094330	61.375076	-127.612465	-453.482971	58.681786	-179.087219	-293.997833	47.127865	-130.802551	-340.925049	473.995789	-425.098541	-348.707428	448.385284	-356.903656	-367.801605	258.539459	-396.742310	-389.151215	60.670555	-323.049591	-441.482117	53.233948	-275.666229	-269.597656	44.144070	-305.282410
60	0.59000000	-334.918365	1297.516846	-44.004105	-329.831360	1300.733398	-384.801025	-418.257538	1362.555542	-218.795303	-296.165466	1261.481079	-217.039505	-361.121429	1002.560608	32.223961	-349.179382	1001.868530	-474.197632	-290.500900	786.742554	63.821617	-281.282181	789.088379	-499.319458	-255.923523	847.649414	-89.197411	-241.373322	843.637634	-341.486969	-474.336456	866.306580	-230.687714	-485.907532	1170.785034	-218.591934	-230.981689	1088.935669	-216.092194	-357.559357	508.730835	-43.199787	-367.650208	452.414642	-91.985611	-400.056854	272.489563	-47.175800	-411.083832	61.335003	-127.620697	-453.484833	58.669228	-179.098816	-293.942505	47.105812	-130.851562	-340.926147	473.999176	-425.036377	-348.656006	448.454285	-356.950714	-367.806885	258.460266	-396.677399	-389.151062	60.654922	-323.068756	-441.385254	53.144302	-275.739410	-269.659119	44.133080	-305.261353
61	0.60000000	-334.983490	1297.516968	-43.996315	-329.880646	1300.730347	-384.791168	-418.323883	1362.561768	-218.751114	-296.206207	1261.439331	-217.005859	-361.342346	1002.542236	32.124069	-349.293518	1001.898987	-474.265259	-290.536575	786.782623	63.876177	-281.285568	789.142700	-499.295670	-255.938980	847.669983	-89.217651	-241.366638	843.638184	-341.485260	-474.454102	866.341003	-230.738327	-486.012482	1170.732788	-218.496704	-231.150726	1088.949951	-216.066650	-357.567230	508.742493	-43.224384	-367.609436	452.366730	-92.040283	-400.034760	272.357391	-47.239239	-411.108368	61.346737	-127.599396	-453.503448	58.584518	-179.066315	-293.988098	47.135216	-130.808304	-340.873901	473.998535	-425.076904	-348.578918	448.400238	-356.875031	-367.769226	258.411102	-396.605988	-389.083099	60.629494	-323.124573	-441.332703	53.157375	-275.754852	-269.729248	44.060795	-305.232758
62	0.61000000	-335.088745	1297.452759	-43.931160	-329.886475	1300.724121	-384.778839	-418.464874	1362.568237	-218.770813	-296.308380	1261.434814	-216.852570	-361.638275	1002.486267	32.181171	-349.372589	1001.899536	-474.233337	-290.557739	786.717285	63.891220	-281.303528	789.112885	-499.250137	-255.963715	847.647522	-89.162979	-241.559647	843.698669	-341.325897	-474.482788	866.311157	-230.718857	-486.080475	1170.740601	-218.560883	-231.215164	1088.976929	-215.952805	-357.518219	508.799164	-43.234127	-367.586121	452.330597	-92.057060	-400.109100	272.417908	-47.143017	-411.196808	61.342033	-127.645683	-453.478882	58.646393	-179.097748	-293.988556	47.125504	-130.817108	-340.889771	473.940186	-425.035767	-348.573608	448.368835	-356.858215	-367.760101	258.396271	-396.605255	-389.072052	60.602955	-323.123077	-441.340057	53.109138	-275.744720	-269.624146	44.137249	-305.296631
63	0.62000000	-335.056641	1297.505005	-43.945732	-329.961884	1300.743774	-384.769775	-418.484528	1362.506104	-218.749634	-296.293610	1261.485840	-216.913528	-361.758209	1002.466064	32.182331	-349.376312	1001.899414	-474.236206	-290.588318	786.821320	64.011469	-281.354065	789.190216	-499.364655	-255.970184	847.619019	-89.125320	-241.613434	843.707336	-341.291351	-474.530396	866.345398	-230.699844	-486.151581	1170.751099	-218.523376	-231.207764	1089.022705	-215.887482	-357.584045	508.845581	-43.142197	-367.613647	452.348083	-92.006012	-400.119629	272.420929	-47.141701	-411.101990	61.338181	-127.628220	-453.408020	58.630882	-179.028564	-293.941925	47.105957	-130.850983	-340.866333	473.923065	-425.081329	-348.572296	448.379303	-356.860107	-367.750366	258.395874	-396.641174	-389.074463	60.601711	-323.120361	-441.377777	53.158371	-275.751160	-269.665833	44.126972	-305.309082
64	0.63000000	-335.193359	1297.555298	-43.856068	-330.062286	1300.750122	-384.745178	-418.569611	1362.529175	-218.678055	-296.419647	1261.471191	-216.915405	-361.771210	1002.627991	32.219448	-349.426758	1001.929443	-474.276276	-290.614578	786.859955	64.128008	-281.397491	789.185699	-499.330643	-256.125336	847.632996	-89.147751	-241.549820	843.785278	-341.389618	-474.519287	866.243958	-230.704987	-486.156097	1170.752686	-218.517838	-231.225372	1089.135498	-215.880295	-357.585175	508.745697	-43.173187	-367.630798	452.370209	-91.981262	-399.867645	272.312683	-47.388493	-411.093384	61.335976	-127.592209	-453.474396	58.662571	-179.091263	-293.929688	47.126389	-130.760513	-340.819824	473.923218	-425.169098	-348.654999	448.395142	-356.782623	-367.754120	258.401245	-396.593445	-389.142517	60.619499	-323.102570	-441.252533	53.259270	-275.936646	-269.722931	44.061459	-305.264465
65	0.64000000	-335.262665	1297.579590	-43.888016	-330.086548	1300.773560	-384.721069	-418.579651	1362.534180	-218.670425	-296.417999	1261.486084	-216.964874	-361.713623	1002.684937	32.299259	-349.441132	1002.039185	-474.294678	-290.602219	786.898102	64.128960	-281.390686	789.240112	-499.329590	-256.157745	847.704285	-89.191795	-241.633652	843.818237	-341.466553	-474.512207	866.235046	-230.708389	-486.138031	1170.782104	-218.537109	-231.236359	1089.156738	-215.862381	-357.648621	508.790741	-43.093639	-367.636841	452.414917	-92.015327	-400.042603	272.349884	-47.227486	-411.111084	61.366947	-127.589844	-453.414612	58.646469	-179.024628	-293.935364	47.130013	-130.750977	-340.830780	473.892487	-425.252686	-348.647339	448.354340	-356.848846	-367.696320	258.501312	-396.645386	-389.075012	60.622295	-323.118591	-441.198395	53.232178	-275.985382	-269.676971	44.126099	-305.295105
66	0.65000000	-335.299561	1297.610596	-43.852268	-330.168274	1300.798950	-384.642120	-418.706268	1362.539307	-218.690842	-296.475433	1261.566895	-216.803650	-361.686249	1002.709229	32.516624	-349.339539	1002.039246	-474.153442	-290.668121	786.935059	64.230377	-281.391083	789.253906	-499.280655	-256.137299	847.677124	-89.110901	-241.711044	843.857544	-341.337921	-474.679504	866.208557	-230.685944	-486.256348	1170.720703	-218.423035	-231.234970	1089.181763	-215.824585	-357.623138	508.759308	-43.164989	-367.631073	452.397278	-91.992332	-400.094666	272.361633	-47.197948	-411.181091	61.323635	-127.521721	-453.407013	58.655190	-179.014008	-293.935272	47.129272	-130.753525	-340.811859	473.960144	-425.270294	-348.663544	448.383606	-356.763092	-367.740082	258.508575	-396.644440	-389.129242	60.608116	-323.083710	-441.465607	53.197704	-275.772797	-269.665405	44.138485	-305.307007
67	0.66000000	-335.393555	1297.629272	-43.827080	-330.207458	1300.808594	-384.655670	-418.727325	1362.479004	-218.668259	-296.462006	1261.575684	-216.833359	-361.436523	1002.859985	32.580406	-349.389740	1002.021851	-474.125214	-290.657318	786.995148	64.290312	-281.401215	789.289490	-499.274200	-256.148224	847.709839	-89.082886	-241.699158	843.867981	-341.380524	-474.729553	866.264404	-230.643158	-486.312012	1170.748169	-218.504211	-231.205917	1089.249634	-215.778564	-357.693207	508.734924	-43.124161	-367.745728	452.360229	-91.905167	-400.127930	272.429932	-47.121918	-411.181366	61.332352	-127.539734	-453.447296	58.602821	-178.960526	-293.989624	47.072670	-130.709335	-340.849609	473.935699	-425.224426	-348.696716	448.345764	-356.737000	-367.747192	258.510620	-396.650360	-389.075958	60.634228	-323.125122	-441.326935	53.087288	-275.827393	-269.600464	44.122677	-305.307068
68	0.67000000	-335.433929	1297.678833	-43.774635	-330.288391	1300.861816	-384.597839	-418.813812	1362.491577	-218.596512	-296.458282	1261.634644	-216.825974	-361.218170	1002.903687	32.877674	-349.558685	1001.985474	-474.163971	-290.677353	787.045349	64.377810	-281.435699	789.281891	-499.245667	-256.091095	847.799805	-89.107971	-241.708191	843.878723	-341.353241	-474.735229	866.215881	-230.621735	-486.320770	1170.756958	-218.480225	-231.247177	1089.310425	-215.738724	-357.682068	508.813049	-43.077049	-367.806274	452.415222	-91.865875	-400.119415	272.384155	-47.148907	-411.175232	61.332199	-127.544960	-453.450562	58.600025	-178.956070	-293.996826	47.070057	-130.704239	-340.899689	473.901276	-425.196655	-348.670776	448.407776	-356.794861	-367.818390	258.508820	-396.737946	-389.039764	60.636978	-323.091125	-441.304535	53.264835	-275.833679	-269.573700	44.159668	-305.327667
69	0.68000000	-335.459900	1297.710571	-43.759968	-330.343170	1300.869507	-384.629669	-418.883606	1362.513550	-218.658707	-296.506134	1261.695068	-216.736008	-361.155762	1002.914185	32.858440	-349.492249	1002.057861	-474.034607	-290.720032	787.025116	64.458241	-281.444519	789.309357	-499.196426	-256.078674	847.798035	-89.191246	-241.828537	843.880615	-341.319244	-474.801971	866.222351	-230.580933	-486.393066	1170.766113	-218.431259	-231.259537	1089.326172	-215.734985	-357.646484	508.765106	-43.125843	-367.765442	452.382141	-91.891365	-400.118073	272.419220	-47.126831	-411.173767	61.329185	-127.557213	-453.449310	58.601208	-178.958099	-293.961884	47.030449	-130.745346	-340.984772	473.981628	-425.196991	-348.764832	448.412537	-356.824677	-367.974182	258.465393	-396.658691	-389.095001	60.613873	-323.082031	-441.172455	53.237450	-275.996094	-269.585449	44.184784	-305.302856
70	0.69000000	-335.578827	1297.742554	-43.750942	-330.372467	1300.944824	-384.611786	-418.957642	1362.510254	-218.620560	-296.519958	1261.694580	-216.722214	-361.181610	1002.930969	33.007988	-349.448181	1002.078552	-473.966553	-290.776962	787.069397	64.560297	-281.480957	789.307312	-499.194717	-256.043915	847.831543	-89.187378	-241.888550	843.834412	-341.297211	-474.770874	866.226868	-230.631638	-486.405182	1170.771240	-218.435532	-231.301392	1089.391357	-215.640671	-357.744659	508.773834	-43.050091	-367.729126	452.335236	-91.960541	-400.085419	272.355621	-47.187366	-411.094116	61.335236	-127.574768	-453.434967	58.588322	-178.979340	-293.941925	47.135460	-130.731064	-340.932373	474.000061	-425.230438	-348.792053	448.374451	-356.803070	-367.851624	258.518036	-396.602814	-389.083832	60.656662	-323.109863	-441.395935	53.197247	-275.715210	-269.588440	44.184235	-305.299103
